<svg viewBox="0 0 200 80" xmlns="http://www.w3.org/2000/svg">
  <!-- Будівля -->
  <g fill="#ffffff">
    <rect x="40" y="30" width="40" height="40" />
    <polygon points="40,30 60,10 80,30" />
    
    <!-- Вікна в будівлі -->
    <rect x="48" y="40" width="8" height="8" fill="#6c757d" />
    <rect x="64" y="40" width="8" height="8" fill="#6c757d" />
    <rect x="48" y="55" width="8" height="15" fill="#6c757d" />
  </g>
  
  <!-- Креслярська лінійка -->
  <g stroke="#ffffff" stroke-width="2">
    <line x1="90" y1="35" x2="140" y2="35" />
    <line x1="90" y1="35" x2="90" y2="45" />
    <line x1="100" y1="35" x2="100" y2="42" />
    <line x1="110" y1="35" x2="110" y2="45" />
    <line x1="120" y1="35" x2="120" y2="42" />
    <line x1="130" y1="35" x2="130" y2="45" />
    <line x1="140" y1="35" x2="140" y2="42" />
  </g>
  
  <!-- Компас для проектування -->
  <circle cx="120" cy="60" r="15" fill="none" stroke="#ffffff" stroke-width="2" />
  <line x1="120" y1="45" x2="120" y2="75" stroke="#ffffff" stroke-width="2" />
  <line x1="105" y1="60" x2="135" y2="60" stroke="#ffffff" stroke-width="2" />
  
  <!-- Назва компанії -->
  <text x="100" y="20" font-family="Arial, sans-serif" font-size="14" font-weight="bold" text-anchor="middle" fill="#ffffff">BuildLAB</text>
</svg>
